<?xml version="1.0" standalone="no"?>
<!DOCTYPE svg PUBLIC "-//W3C//DTD SVG 20010904//EN"
 "http://www.w3.org/TR/2001/REC-SVG-20010904/DTD/svg10.dtd">
<svg version="1.0" xmlns="http://www.w3.org/2000/svg"
 width="1024.000000pt" height="1024.000000pt" viewBox="0 0 1024.000000 1024.000000"
 preserveAspectRatio="xMidYMid meet">

<g transform="translate(0.000000,1024.000000) scale(0.100000,-0.100000)"
fill="#000000" stroke="none">
<path d="M2140 7173 c-124 -52 -369 -156 -545 -230 -176 -74 -326 -141 -334
-148 -17 -17 -2 -25 265 -140 200 -86 213 -89 214 -45 0 47 55 81 194 120 143
40 251 52 456 52 227 0 338 -15 503 -69 114 -38 143 -59 154 -115 3 -16 9 -31
14 -33 4 -3 46 12 93 34 l86 40 0 -144 c0 -107 -5 -164 -20 -227 -10 -46 -22
-107 -26 -135 l-7 -53 92 0 c54 0 91 4 91 10 0 5 -11 68 -25 139 -22 111 -25
152 -23 287 l3 158 103 44 c56 25 102 50 102 57 0 14 -3 15 -250 120 -107 46
-348 148 -534 229 -187 80 -349 146 -360 145 -12 0 -122 -44 -246 -96z"/>
<path d="M2225 6704 c-221 -32 -363 -71 -401 -109 -23 -23 -24 -29 -24 -185 0
-88 2 -160 4 -160 2 0 33 11 69 25 230 86 669 99 942 28 55 -14 112 -32 127
-39 15 -8 29 -14 33 -14 3 0 5 72 5 160 0 158 -1 161 -24 183 -30 28 -161 71
-281 93 -86 15 -386 27 -450 18z"/>
<path d="M6135 6623 c-163 -59 -261 -182 -288 -364 -30 -206 63 -398 230 -481
58 -28 79 -33 163 -36 157 -7 260 36 335 138 54 74 77 148 83 268 l5 102 -202
0 -201 0 0 -80 0 -80 100 0 100 0 -6 -27 c-25 -104 -98 -152 -215 -141 -112
11 -179 99 -187 243 -5 102 15 170 67 228 45 50 85 67 156 67 67 0 109 -19
151 -67 l31 -36 79 33 c44 17 82 35 87 39 12 11 -46 94 -91 129 -72 58 -126
75 -242 79 -83 3 -116 0 -155 -14z"/>
<path d="M8053 6621 c-82 -28 -129 -66 -160 -129 -49 -101 -30 -221 48 -286
46 -39 91 -60 208 -96 115 -35 151 -61 151 -109 0 -20 -9 -37 -31 -55 -61 -52
-208 -23 -272 53 l-27 33 -71 -61 -70 -61 47 -50 c28 -30 73 -63 113 -83 62
-30 71 -32 181 -32 100 0 122 3 168 24 141 64 201 226 132 360 -35 70 -103
108 -283 162 -90 26 -127 55 -127 97 0 92 158 109 251 25 44 -40 43 -41 128
35 l45 39 -22 30 c-29 41 -104 90 -166 108 -67 20 -179 19 -243 -4z"/>
<path d="M4247 6623 c-4 -3 -7 -201 -7 -440 l0 -433 275 0 275 0 0 90 0 90
-169 0 -170 0 -3 86 c-2 47 -1 88 1 90 2 2 71 4 153 4 l148 0 0 85 0 85 -156
0 -156 0 6 31 c3 17 6 53 6 80 l0 49 170 0 170 0 0 95 0 95 -268 0 c-148 0
-272 -3 -275 -7z"/>
<path d="M4970 6189 l0 -439 101 0 102 0 -5 260 c-2 143 -1 257 3 253 3 -5 81
-122 172 -260 l166 -253 93 0 93 0 -3 440 -2 440 -96 0 -95 0 3 -260 c2 -143
0 -259 -4 -258 -3 2 -49 68 -100 148 -52 80 -128 195 -168 256 l-75 111 -92 1
-93 0 0 -439z"/>
<path d="M6817 6623 c-4 -3 -7 -201 -7 -440 l0 -433 280 0 280 0 0 90 0 90
-180 0 -180 0 0 350 0 350 -93 0 c-52 0 -97 -3 -100 -7z"/>
<path d="M7500 6190 l0 -440 100 0 100 0 0 440 0 440 -100 0 -100 0 0 -440z"/>
<path d="M8657 6623 c-4 -4 -7 -202 -7 -440 l1 -433 100 0 99 0 0 180 0 180
155 0 155 0 0 -180 0 -180 105 0 105 0 -4 68 c-2 37 -4 235 -5 440 l-1 372
-100 0 -100 0 0 -170 0 -170 -155 0 -155 0 0 170 0 170 -93 0 c-52 0 -97 -3
-100 -7z"/>
<path d="M2201 6250 c-57 -12 -63 -18 -94 -97 -14 -38 -60 -158 -102 -268 -42
-110 -92 -238 -110 -285 -187 -476 -454 -1173 -451 -1177 1 -1 98 -3 216 -4
l214 -3 12 30 c7 16 38 102 70 192 l58 162 371 0 372 0 69 -189 69 -189 215
-4 c118 -2 216 -3 217 -2 5 1 -158 430 -473 1249 -59 154 -130 340 -158 414
-69 181 -58 174 -278 177 -95 2 -193 -1 -217 -6z m222 -525 c58 -155 207 -572
207 -578 0 -4 -110 -7 -245 -7 -135 0 -245 2 -245 4 0 2 25 73 56 157 31 85
80 222 109 304 61 174 76 208 85 198 3 -5 18 -39 33 -78z"/>
<path d="M4507 5440 c-102 -26 -205 -108 -253 -201 -71 -140 -72 -336 -2 -473
31 -61 111 -140 175 -171 50 -25 73 -30 158 -33 118 -5 184 15 255 75 46 40
100 109 100 128 0 11 -130 75 -152 75 -5 0 -23 -16 -40 -36 -42 -47 -77 -64
-138 -64 -100 0 -165 60 -196 182 -29 112 8 248 83 305 53 41 137 44 198 9 24
-15 52 -40 60 -57 18 -34 20 -34 122 12 35 15 63 32 63 36 0 4 -13 31 -30 59
-57 101 -156 156 -285 160 -44 2 -97 -1 -118 -6z"/>
<path d="M6766 5430 c-121 -43 -181 -119 -181 -230 0 -86 9 -113 52 -161 44
-49 100 -78 215 -113 136 -42 171 -74 153 -143 -7 -31 -58 -53 -120 -53 -54 0
-127 34 -171 79 l-30 31 -67 -56 c-37 -30 -67 -60 -67 -66 0 -21 88 -96 146
-124 50 -24 75 -29 161 -32 120 -5 182 11 256 64 70 51 101 122 95 215 -9 127
-72 184 -264 245 -133 41 -164 62 -164 109 0 94 164 103 255 15 l31 -30 68 61
69 60 -52 49 c-67 63 -140 92 -246 97 -63 3 -93 -1 -139 -17z"/>
<path d="M7525 5437 c-119 -40 -181 -111 -192 -221 -7 -69 9 -124 53 -174 44
-52 97 -79 231 -121 105 -32 143 -60 143 -103 0 -112 -212 -116 -305 -6 -28
34 -22 36 -118 -48 l-47 -41 41 -46 c25 -29 65 -59 107 -79 64 -32 71 -33 187
-33 138 0 174 10 243 65 66 52 96 121 90 205 -11 132 -76 191 -278 252 -140
42 -185 99 -125 158 45 46 164 29 227 -32 l27 -26 47 39 c25 21 56 47 68 57
l21 17 -52 49 c-33 31 -75 58 -110 71 -72 27 -201 36 -258 17z"/>
<path d="M8975 5437 c-67 -22 -101 -44 -139 -89 -39 -45 -56 -91 -56 -153 0
-135 73 -207 276 -270 90 -28 118 -41 138 -66 29 -34 30 -38 16 -73 -14 -38
-63 -59 -129 -54 -68 5 -117 28 -164 75 l-36 35 -65 -53 c-35 -30 -65 -59 -65
-65 -2 -23 86 -98 149 -128 62 -30 71 -31 190 -31 116 0 129 2 175 27 99 52
145 124 145 228 0 138 -67 201 -285 268 -112 35 -145 60 -145 109 0 92 177 99
259 9 l24 -26 66 57 c36 31 68 59 71 61 13 10 -105 103 -157 123 -71 27 -209
35 -268 16z"/>
<path d="M5070 5003 l0 -433 260 0 260 0 0 85 0 85 -162 0 -163 0 1 344 1 345
-98 3 -99 3 0 -432z"/>
<path d="M5985 5413 c-4 -10 -71 -196 -150 -413 -78 -217 -146 -403 -150 -413
-7 -16 0 -17 101 -15 l108 3 25 80 26 80 149 0 149 0 27 -80 27 -80 101 -3
c74 -2 102 1 102 9 0 7 -55 166 -121 353 -67 188 -133 376 -147 419 l-26 77
-107 0 c-92 0 -108 -2 -114 -17z m159 -353 c25 -74 46 -141 46 -147 0 -10 -26
-13 -98 -13 l-99 0 50 150 c28 83 51 149 53 147 2 -1 23 -63 48 -137z"/>
<path d="M8100 5000 l0 -430 275 0 275 0 0 85 0 85 -180 0 -180 0 0 95 0 95
150 0 150 0 0 80 0 80 -150 0 -150 0 0 85 0 85 179 0 179 0 1 85 0 85 -275 0
-274 0 0 -430z"/>
<path d="M1305 5280 c-101 -10 -181 -29 -206 -49 -17 -13 -27 -47 -50 -171
-71 -388 -122 -657 -173 -930 -59 -309 -63 -345 -43 -371 28 -37 60 -42 287
-51 361 -13 564 -34 785 -84 99 -22 175 -46 404 -129 88 -32 103 -30 245 27
303 122 563 166 1101 186 174 7 227 12 252 25 36 19 53 44 53 80 0 21 -60 345
-136 732 -13 66 -46 244 -75 395 -28 151 -56 281 -61 288 -17 20 -106 41 -223
52 -132 12 -315 13 -333 1 -11 -6 -10 -20 4 -69 l17 -62 156 0 c154 -1 234 -9
251 -26 5 -5 50 -225 100 -489 50 -264 97 -506 104 -537 15 -65 13 -67 -54
-48 -145 43 -475 53 -659 20 -198 -36 -403 -114 -575 -218 -37 -23 -73 -42
-80 -42 -7 0 -39 16 -72 36 -200 122 -396 194 -622 230 -145 22 -434 15 -572
-15 -111 -24 -131 -26 -125 -8 3 6 47 240 100 519 52 278 99 517 104 531 5 13
18 28 28 32 10 5 101 11 202 14 l184 6 19 55 c10 30 16 60 13 67 -5 14 -219
16 -350 3z m459 -1360 c200 -39 456 -147 548 -230 24 -22 37 -39 29 -40 -7 0
-82 22 -167 50 -286 92 -492 124 -916 142 -159 6 -288 15 -288 20 0 25 124 60
285 79 121 14 388 3 509 -21z m1876 6 c98 -20 160 -44 160 -62 0 -8 -1 -14 -2
-14 -2 -1 -138 -5 -303 -10 -450 -14 -708 -62 -1037 -195 -12 -5 -18 -2 -18 7
0 8 31 36 69 61 177 117 401 200 617 227 103 13 426 4 514 -14z"/>
<path d="M4260 4026 l0 -176 29 0 c28 0 29 2 36 65 l7 65 64 0 64 0 0 30 0 30
-64 0 c-36 0 -67 4 -70 8 -3 5 -3 25 1 45 l6 37 68 0 c48 0 69 4 70 13 0 6 2
20 4 30 3 15 -6 17 -75 17 -42 0 -92 3 -109 6 l-31 7 0 -177z"/>
<path d="M4602 4179 c-46 -30 -75 -91 -75 -159 0 -132 112 -212 225 -162 66
29 93 78 93 168 0 62 -3 75 -28 107 -15 20 -41 44 -57 52 -43 22 -118 19 -158
-6z m122 -49 c59 -22 75 -143 26 -195 -28 -29 -83 -34 -117 -10 -52 36 -49
153 4 194 28 23 49 26 87 11z"/>
<path d="M4924 4191 c-2 -2 -4 -80 -4 -173 l0 -168 35 0 35 0 0 60 c0 59 1 60
28 60 23 0 33 -10 61 -60 33 -57 37 -60 74 -60 l39 0 -27 48 c-15 26 -35 56
-44 66 -13 15 -13 20 -2 24 71 24 77 149 9 191 -21 13 -193 23 -204 12z m170
-77 c38 -37 4 -84 -61 -84 l-43 0 0 50 0 50 44 0 c27 0 51 -6 60 -16z"/>
<path d="M5424 4191 c-2 -2 -4 -80 -4 -173 l0 -168 90 0 c108 0 143 14 160 64
13 42 5 82 -23 101 -19 13 -19 16 -5 32 8 10 18 27 22 37 10 29 -11 81 -39 96
-22 12 -191 21 -201 11z m164 -67 c6 -2 12 -12 12 -23 0 -32 -28 -51 -76 -51
l-44 0 0 38 c0 21 3 42 7 45 6 6 71 1 101 -9z m6 -140 c19 -19 20 -35 3 -58
-10 -13 -24 -17 -62 -14 -47 3 -50 5 -53 31 -2 16 -1 35 2 43 8 20 90 19 110
-2z"/>
<path d="M5863 4193 l-103 -4 0 -169 0 -170 110 0 110 0 0 30 0 30 -76 0 -75
0 3 43 3 42 63 -3 62 -4 0 31 0 31 -65 0 -65 0 0 40 0 40 75 0 75 0 0 35 c0
19 -3 34 -7 33 -5 -1 -54 -4 -110 -5z"/>
<path d="M6040 4179 c0 -9 -3 -24 -6 -33 -5 -13 2 -16 45 -16 l51 0 0 -140 0
-140 30 0 30 0 1 120 c1 66 3 125 4 130 1 6 3 15 4 20 0 6 24 10 51 10 49 0
50 1 50 30 l0 30 -107 1 c-60 1 -118 3 -130 4 -16 2 -23 -3 -23 -16z"/>
<path d="M6349 4195 c0 0 -2 -15 -5 -32 l-4 -33 50 0 50 0 0 -140 0 -140 33 0
32 0 0 138 0 137 48 3 c44 3 47 5 47 32 l0 29 -125 3 c-69 2 -125 3 -126 3z"/>
<path d="M6970 4026 l0 -176 35 0 35 0 0 60 c0 56 1 60 24 60 18 0 32 -14 60
-60 35 -57 39 -60 77 -60 30 0 38 3 33 13 -4 6 -23 35 -41 64 l-33 52 30 30
c25 24 30 38 30 76 0 38 -5 52 -29 76 -28 27 -34 29 -109 29 -44 0 -87 3 -96
6 -14 5 -16 -13 -16 -170z m166 96 c6 -4 14 -17 18 -29 11 -33 -24 -63 -74
-63 l-40 0 0 50 0 50 43 0 c23 0 47 -4 53 -8z"/>
<path d="M7540 4182 c-50 -27 -82 -89 -83 -160 0 -62 11 -91 51 -135 50 -54
154 -56 209 -5 33 31 40 45 48 101 l7 47 -87 0 c-84 0 -86 -1 -83 -22 2 -19
10 -24 46 -26 33 -2 42 -7 42 -21 0 -26 -36 -54 -69 -54 -97 0 -135 149 -54
212 34 28 65 26 101 -4 25 -21 34 -24 56 -15 30 11 32 18 10 48 -36 52 -129
68 -194 34z"/>
<path d="M7850 4023 l0 -173 35 0 35 0 0 60 c0 56 1 60 24 60 18 0 32 -14 60
-60 36 -57 39 -60 78 -60 40 0 40 0 24 23 -9 12 -27 41 -41 63 l-26 42 31 30
c40 40 42 106 6 149 -23 26 -30 28 -125 33 l-101 5 0 -172z m166 99 c6 -4 14
-17 18 -29 11 -33 -24 -63 -74 -63 l-40 0 0 50 0 50 43 0 c23 0 47 -4 53 -8z"/>
<path d="M8271 4178 c-5 -13 -15 -43 -24 -68 -8 -25 -31 -89 -51 -144 -20 -54
-36 -102 -36 -107 0 -5 15 -9 34 -9 29 0 34 4 42 33 l10 32 69 0 69 0 10 -32
c8 -30 13 -33 47 -33 l39 0 -25 68 c-14 37 -42 114 -63 172 l-38 105 -37 3
c-31 3 -38 -1 -46 -20z m71 -130 c10 -29 18 -56 18 -60 0 -4 -21 -8 -46 -8
-33 0 -45 4 -42 13 3 6 13 36 23 65 9 29 20 51 23 48 3 -3 14 -29 24 -58z"/>
<path d="M8550 4022 l0 -174 89 4 c96 3 123 15 165 71 31 42 33 131 4 187 -33
64 -69 81 -173 83 l-85 2 0 -173z m182 78 c28 -29 30 -35 26 -87 -6 -64 -26
-88 -84 -99 -61 -11 -64 -6 -64 111 l0 105 46 0 c37 0 51 -5 76 -30z"/>
<path d="M9250 4187 c-53 -27 -67 -111 -26 -152 13 -13 49 -31 80 -40 88 -26
108 -62 45 -84 -34 -12 -55 -6 -85 21 -15 14 -29 17 -48 12 -32 -8 -33 -23 -5
-53 79 -85 241 -49 241 53 0 22 -8 49 -19 64 -19 26 -32 32 -110 52 -51 13
-71 41 -47 64 22 22 66 20 97 -4 25 -20 28 -20 51 -4 73 47 -90 114 -174 71z"/>
<path d="M6670 4020 l0 -170 109 0 109 0 4 30 5 30 -79 0 -78 0 0 40 0 40 65
0 65 0 0 30 0 30 -65 0 -65 0 0 40 0 40 75 0 75 0 0 30 0 30 -110 0 -110 0 0
-170z"/>
<path d="M8910 4020 l0 -170 110 0 110 0 0 33 0 32 -77 0 -78 0 -3 38 -3 37
70 0 71 0 0 30 c0 29 0 29 -67 32 -65 3 -68 4 -69 28 -3 45 4 50 76 50 62 0
68 2 74 23 3 12 6 25 6 30 0 4 -49 7 -110 7 l-110 0 0 -170z"/>
</g>
</svg>
